<svg width="177" height="96" viewBox="0 0 177 96" fill="none" xmlns="http://www.w3.org/2000/svg">
<path d="M90.7444 20.3695L101.263 9.98438H120.13L100.061 29.7028" fill="#FEFEFE"/>
<path d="M90.7444 20.3695L101.263 9.98438H120.13L100.061 29.7028" stroke="#FEFEFE" stroke-width="2"/>
<path d="M110.663 37.9843L101.497 47.1173H82.6466L101.23 28.5342L110.663 37.9843Z" fill="#EE3923"/>
<path fill-rule="evenodd" clip-rule="evenodd" d="M110.997 19.1172L120.13 28.2502V47.4343L101.23 28.534L91.7795 38.0009L82.3795 28.6008V9.34985L91.7795 18.7165L100.996 9.50013H120.614L110.997 19.1172ZM101.196 28.0999L119.329 9.98432H101.263L92.1802 19.1005L101.196 28.0999Z" fill="#152D7B"/>
<path d="M153.322 14.6259C152.955 14.6259 152.616 14.5647 152.304 14.4423C152.003 14.3198 151.747 14.1473 151.536 13.9247C151.313 13.702 151.141 13.4238 151.018 13.0898C150.907 12.7671 150.851 12.3997 150.851 11.9879C150.851 11.5983 150.907 11.2421 151.018 10.9193C151.13 10.5965 151.291 10.3182 151.503 10.0845C151.714 9.85075 151.97 9.66709 152.271 9.53352C152.571 9.41108 152.916 9.34985 153.306 9.34985C153.617 9.34985 153.907 9.38881 154.174 9.46673C154.43 9.54465 154.653 9.66153 154.842 9.81736C155.042 9.96206 155.204 10.1401 155.326 10.3516C155.437 10.5631 155.51 10.8024 155.543 11.0696H154.558C154.547 10.936 154.508 10.8136 154.441 10.7023C154.374 10.591 154.291 10.4963 154.191 10.4184C154.079 10.3405 153.951 10.2793 153.807 10.2348C153.651 10.2014 153.484 10.1847 153.306 10.1847C153.083 10.1847 152.883 10.2236 152.705 10.3015C152.527 10.3795 152.376 10.4963 152.254 10.6522C152.12 10.808 152.02 10.9972 151.953 11.2199C151.887 11.4425 151.853 11.6985 151.853 11.9879C151.853 12.2884 151.887 12.55 151.953 12.7726C152.031 12.9952 152.131 13.1845 152.254 13.3403C152.387 13.4961 152.543 13.613 152.721 13.6909C152.911 13.7688 153.117 13.8078 153.339 13.8078C153.629 13.8078 153.885 13.7633 154.107 13.6742C154.33 13.5852 154.513 13.4516 154.658 13.2735V12.639H153.506V11.871H155.61V14.5424H154.992L154.842 14.0916C154.675 14.2697 154.463 14.4033 154.207 14.4923C153.962 14.5814 153.667 14.6259 153.322 14.6259Z" fill="#152D7B"/>
<path fill-rule="evenodd" clip-rule="evenodd" d="M160.986 14.5424H159.934L159.483 13.2735C159.45 13.1622 159.4 13.062 159.333 12.973C159.277 12.8728 159.205 12.7893 159.116 12.7225C159.038 12.6669 158.949 12.6168 158.849 12.5723C158.749 12.5389 158.643 12.5222 158.532 12.5222H157.58V14.5424H156.595V9.43334H158.866C159.055 9.43334 159.233 9.44447 159.4 9.46673C159.567 9.47786 159.717 9.50569 159.851 9.55021C159.984 9.59474 160.107 9.65596 160.218 9.73388C160.318 9.80066 160.413 9.89527 160.502 10.0177C160.658 10.2626 160.736 10.552 160.736 10.8859C160.736 11.2532 160.641 11.5482 160.452 11.7708C160.263 11.9934 159.995 12.1437 159.65 12.2216V12.2383C159.84 12.294 160.001 12.4053 160.135 12.5723C160.268 12.7281 160.385 12.934 160.485 13.19L160.986 14.5424ZM157.563 11.7207H158.765C158.932 11.7207 159.077 11.7096 159.2 11.6873C159.322 11.654 159.428 11.6094 159.517 11.5538C159.595 11.487 159.65 11.4035 159.684 11.3033C159.728 11.2143 159.751 11.0974 159.751 10.9527C159.751 10.6967 159.673 10.5075 159.517 10.385C159.372 10.2737 159.144 10.2181 158.832 10.2181H157.563V11.7207Z" fill="#152D7B"/>
<path d="M163.808 14.6259C163.507 14.6259 163.246 14.6037 163.023 14.5591C162.8 14.5035 162.611 14.4256 162.455 14.3254C162.3 14.2252 162.177 14.1083 162.088 13.9748C161.988 13.8412 161.91 13.6909 161.854 13.524C161.81 13.357 161.776 13.1789 161.754 12.9897C161.732 12.8004 161.721 12.6001 161.721 12.3886V9.43334H162.706V12.3886C162.706 12.6446 162.722 12.8617 162.756 13.0398C162.8 13.2179 162.867 13.3626 162.956 13.4739C163.034 13.5852 163.145 13.6631 163.29 13.7076C163.435 13.7633 163.607 13.7911 163.808 13.7911C163.997 13.7911 164.164 13.7633 164.309 13.7076C164.442 13.6631 164.554 13.5907 164.643 13.4906C164.732 13.3793 164.798 13.2345 164.843 13.0565C164.887 12.8784 164.91 12.6557 164.91 12.3886V9.43334H165.878V12.3886C165.878 12.5667 165.873 12.7448 165.861 12.9229C165.85 13.1121 165.822 13.2902 165.778 13.4572C165.722 13.6241 165.65 13.7744 165.561 13.908C165.472 14.0527 165.349 14.1807 165.194 14.292C165.038 14.3922 164.848 14.4757 164.626 14.5424C164.403 14.5981 164.131 14.6259 163.808 14.6259Z" fill="#152D7B"/>
<path fill-rule="evenodd" clip-rule="evenodd" d="M166.947 9.43334H168.9C169.112 9.43334 169.306 9.44447 169.485 9.46673C169.651 9.47786 169.807 9.51126 169.952 9.56691C170.097 9.61144 170.225 9.67822 170.336 9.76726C170.447 9.84518 170.548 9.95093 170.637 10.0845C170.726 10.2181 170.787 10.3572 170.82 10.5019C170.865 10.6577 170.887 10.8136 170.887 10.9694C170.887 11.2477 170.843 11.487 170.753 11.6873C170.664 11.8988 170.536 12.0714 170.369 12.2049C170.202 12.3496 169.991 12.4554 169.735 12.5222C169.49 12.6001 169.206 12.639 168.883 12.639H167.932V14.5424H166.947V9.43334ZM167.932 11.8376C167.999 11.8376 168.716 11.8376 168.783 11.8376C168.85 11.8376 168.911 11.8321 168.967 11.8209C169.134 11.8209 169.273 11.8042 169.384 11.7708C169.507 11.7263 169.601 11.6707 169.668 11.6039C169.746 11.5371 169.802 11.4536 169.835 11.3534C169.869 11.2532 169.885 11.1419 169.885 11.0195C169.885 10.9304 169.874 10.847 169.852 10.769C169.83 10.6911 169.802 10.6244 169.768 10.5687C169.735 10.5019 169.69 10.4463 169.635 10.4017C169.579 10.3572 169.523 10.3238 169.468 10.3015C169.379 10.2793 169.256 10.2626 169.101 10.2515C168.945 10.2403 168.772 10.2348 168.583 10.2348H167.932V11.8376Z" fill="#152D7B"/>
<path fill-rule="evenodd" clip-rule="evenodd" d="M173.959 9.34985C174.338 9.34985 174.672 9.41108 174.961 9.53352C175.261 9.66709 175.523 9.84519 175.746 10.0678C175.957 10.3016 176.119 10.5798 176.23 10.9026C176.341 11.2366 176.397 11.5983 176.397 11.9879C176.397 12.3886 176.341 12.7504 176.23 13.0732C176.119 13.396 175.957 13.6742 175.746 13.908C175.534 14.1417 175.278 14.3198 174.978 14.4423C174.677 14.5647 174.338 14.6259 173.959 14.6259C173.592 14.6259 173.258 14.5647 172.957 14.4423C172.646 14.3198 172.384 14.1417 172.173 13.908C171.961 13.6742 171.8 13.396 171.688 13.0732C171.566 12.7504 171.505 12.3886 171.505 11.9879C171.505 11.5983 171.566 11.2366 171.688 10.9026C171.8 10.5798 171.961 10.3016 172.173 10.0678C172.395 9.84519 172.657 9.66709 172.957 9.53352C173.258 9.41108 173.592 9.34985 173.959 9.34985ZM173.959 13.8078C174.182 13.8078 174.382 13.7633 174.56 13.6742C174.738 13.5852 174.894 13.4572 175.028 13.2902C175.15 13.1344 175.245 12.9451 175.312 12.7225C175.378 12.4999 175.412 12.255 175.412 11.9879C175.412 11.7207 175.378 11.4759 175.312 11.2532C175.245 11.0306 175.15 10.8414 175.028 10.6856C174.905 10.5297 174.755 10.4073 174.577 10.3183C174.399 10.2292 174.198 10.1847 173.976 10.1847C173.742 10.1847 173.536 10.2292 173.358 10.3183C173.18 10.4073 173.03 10.5297 172.907 10.6856C172.774 10.8414 172.674 11.0306 172.607 11.2532C172.54 11.4759 172.507 11.7207 172.507 11.9879C172.507 12.255 172.54 12.4999 172.607 12.7225C172.674 12.9451 172.774 13.1344 172.907 13.2902C173.03 13.4572 173.18 13.5852 173.358 13.6742C173.536 13.7633 173.737 13.8078 173.959 13.8078Z" fill="#152D7B"/>
<path d="M130.148 17.2305L126.842 26.5972H124.838L121.533 17.2305H123.386C123.686 18.1099 123.976 18.9837 124.254 19.8519C124.532 20.7201 124.816 21.5939 125.106 22.4732L125.84 24.9443L126.592 22.4732C126.87 21.5939 127.154 20.7201 127.443 19.8519C127.732 18.9837 128.016 18.1099 128.295 17.2305H130.148Z" fill="#152D7B"/>
<path d="M138.246 26.5972H131.1V17.2305H138.045V18.7499H132.886V21.054H137.695V22.5901H132.886V25.0779H138.246V26.5972Z" fill="#152D7B"/>
<path d="M149.382 26.5972H147.696V22.7237L147.746 19.0338L145.392 26.5972H143.755L141.385 19.0338L141.435 22.7237V26.5972H139.732V17.2305H142.336L144.557 24.5102L146.777 17.2305H149.382V26.5972Z" fill="#152D7B"/>
<path fill-rule="evenodd" clip-rule="evenodd" d="M151.836 22.1393L153.59 17.2305H155.56L159.083 26.5972H157.196L156.344 24.2096H152.838L152.02 26.5972H150.234L151.836 22.1393ZM155.927 22.7738L154.575 18.7833L153.272 22.7738H155.927Z" fill="#152D7B"/>
<path fill-rule="evenodd" clip-rule="evenodd" d="M167.999 26.5972H166.062L165.244 24.2597C165.166 24.0594 165.071 23.8757 164.96 23.7087C164.848 23.5307 164.72 23.386 164.576 23.2746C164.42 23.1522 164.253 23.0576 164.075 22.9908C163.897 22.924 163.696 22.8906 163.474 22.8906H161.737V26.5972H159.934V17.2305H164.108C164.453 17.2305 164.776 17.2417 165.077 17.2639C165.377 17.2973 165.65 17.353 165.895 17.4309C166.151 17.5088 166.379 17.6201 166.579 17.7648C166.78 17.8984 166.952 18.0765 167.097 18.2991C167.397 18.7444 167.548 19.2731 167.548 19.8853C167.548 20.5531 167.37 21.093 167.013 21.5048C166.668 21.9055 166.173 22.1838 165.527 22.3397V22.3563C165.895 22.4788 166.195 22.6847 166.429 22.9741C166.674 23.2635 166.885 23.6475 167.064 24.1262L167.999 26.5972ZM161.737 21.4213H163.925C164.247 21.4213 164.52 21.3935 164.743 21.3379C164.965 21.2822 165.149 21.1987 165.294 21.0874C165.438 20.9761 165.55 20.8314 165.628 20.6533C165.694 20.4752 165.728 20.2582 165.728 20.0022C165.728 19.5347 165.589 19.1896 165.31 18.967C165.043 18.7444 164.631 18.633 164.075 18.633H161.737V21.4213Z" fill="#152D7B"/>
<path d="M176.397 26.5972H169.251V17.2305H176.196V18.7499H171.037V21.054H175.846V22.5901H171.037V25.0779H176.397V26.5972Z" fill="#152D7B"/>
<path d="M110.663 37.9843L101.497 47.1173H82.6466L101.23 28.5342L110.663 37.9843Z" fill="#EE3923"/>
<path fill-rule="evenodd" clip-rule="evenodd" d="M110.997 19.1172L120.13 28.2502V47.4343L101.23 28.534L91.7795 38.0009L82.3795 28.6008V9.34985L91.7795 18.7165L100.996 9.50013H120.614L110.997 19.1172ZM101.196 28.0999L119.329 9.98432H101.263L92.1802 19.1005L101.196 28.0999Z" fill="#152D7B"/>
<path d="M58.9043 47.0671H0.416893V8.2146H58.9043V47.0671Z" fill="#152D7B"/>
<path d="M23.8252 41.1399L22.9236 38.8859C20.8199 41.407 17.6643 43.0099 14.1413 43.0099C7.81339 43.0099 2.6876 37.8841 2.6876 31.5562C2.6876 25.2449 7.81339 20.1191 14.1413 20.1191C19.1669 20.1191 23.4412 23.3749 24.9606 27.8997V27.883L29.7357 41.1399H23.8252Z" fill="#FEFEFE"/>
<path d="M46.7827 12.1216L57.3182 41.1065H51.5078L50.5895 38.6021C48.4858 41.2735 45.23 43.0099 41.5735 43.0099C35.2622 43.0099 30.1365 37.8841 30.1365 31.5562C30.1365 25.2449 35.2622 20.1191 41.5735 20.1191C42.3582 20.1191 43.1262 20.2026 43.8609 20.3362L40.8221 12.1216H46.7827Z" fill="#FEFEFE"/>
<path d="M40.2044 17.5646H24.5766L22.5396 12.1216H38.1674L40.2044 17.5646Z" fill="#FEFEFE"/>
<path d="M14.0078 37.2831C10.8354 37.2831 8.2642 34.7285 8.2642 31.5562C8.2642 28.4006 10.8354 25.8293 14.0078 25.8293C17.1634 25.8293 19.7346 28.4006 19.7346 31.5562C19.7346 34.7285 17.1634 37.2831 14.0078 37.2831Z" fill="#EE3923"/>
<path d="M41.6069 37.2831C38.4513 37.2831 35.88 34.7285 35.88 31.5562C35.88 28.4006 38.4513 25.8293 41.6069 25.8293C44.7792 25.8293 47.3337 28.4006 47.3337 31.5562C47.3337 34.7285 44.7792 37.2831 41.6069 37.2831Z" fill="#EE3923"/>
<path d="M70.8923 27.9998C70.8923 43.4607 70.7755 55.9997 70.6252 55.9997C70.4916 55.9997 70.3748 43.4607 70.3748 27.9998C70.3748 12.539 70.4916 0 70.6252 0C70.7755 0 70.8923 12.539 70.8923 27.9998Z" fill="#152D7B"/>
<g clip-path="url(#clip0_316_8947)">
<path fill-rule="evenodd" clip-rule="evenodd" d="M127.758 64.698C127.669 64.7606 127.651 64.8252 127.642 65.1231C127.629 65.597 127.551 65.9653 127.408 66.2331C127.324 66.3887 127.319 66.5829 127.397 66.6552L127.449 66.7041L127.406 66.8906C127.383 66.9931 127.309 67.2447 127.244 67.4497C127.178 67.6546 127.061 68.0974 126.982 68.4336C126.904 68.7698 126.802 69.1755 126.755 69.3352C126.557 70.009 126.064 71.5269 125.939 71.8495C125.864 72.0412 125.805 72.2251 125.806 72.2582C125.814 72.4219 125.805 72.4839 125.759 72.6004C125.732 72.6701 125.7 72.8117 125.688 72.9151C125.675 73.0412 125.643 73.1554 125.594 73.2617C125.541 73.375 125.514 73.4792 125.498 73.6266C125.46 73.9985 125.336 74.4109 125.187 74.6621C125.071 74.8568 125.069 74.8645 125.053 75.1433C125.046 75.2689 125.014 75.507 124.983 75.6723C124.927 75.9673 124.926 76.0065 124.914 77.8121C124.901 79.7592 124.911 80.1491 124.979 80.2532C125.032 80.3332 125.097 80.3214 125.113 80.2288C125.123 80.1707 125.142 80.1529 125.218 80.1317C125.286 80.1125 125.318 80.0865 125.341 80.0315C125.373 79.9558 125.501 79.8547 125.682 79.7628C125.818 79.6935 125.849 79.6974 125.935 79.7956C125.976 79.8419 126.03 79.8797 126.055 79.8797C126.123 79.8797 126.301 79.7426 126.378 79.632C126.443 79.538 126.445 79.5241 126.459 79.1245C126.471 78.7814 126.482 78.6899 126.527 78.5694C126.629 78.2947 126.646 78.1936 126.683 77.6734C126.74 76.8582 126.851 76.1343 126.949 75.9367C127.092 75.6498 127.249 75.0248 127.346 74.3619C127.419 73.863 127.761 72.6718 127.882 72.4924C127.915 72.4445 127.946 72.3525 127.955 72.2791C127.987 72.0268 128.152 71.5278 128.576 70.3948C128.638 70.2293 128.692 70.0396 128.702 69.95C128.711 69.8641 128.738 69.7451 128.761 69.6856C128.785 69.6261 128.871 69.4097 128.952 69.2048C129.033 68.9998 129.141 68.7131 129.191 68.5676C129.242 68.4222 129.323 68.2004 129.371 68.0748C129.493 67.7598 129.622 67.2453 129.649 66.9644C129.665 66.7957 129.694 66.6706 129.752 66.5187C130.039 65.7709 129.922 65.4519 129.237 65.1127C128.865 64.929 128.624 64.8352 128.451 64.8073C128.373 64.7946 128.22 64.7564 128.113 64.7224C127.887 64.6508 127.831 64.6469 127.758 64.698ZM116.627 68.2304C116.547 68.2866 116.496 68.4513 116.474 68.7238C116.454 68.9801 116.429 69.0718 116.271 69.4684C116.189 69.6735 116.164 69.8529 116.223 69.8112C116.237 69.8016 116.36 69.6667 116.497 69.5113C116.634 69.356 116.757 69.2288 116.77 69.2288C116.855 69.2288 116.637 70.5011 116.392 71.4287C116.319 71.7053 116.302 71.8125 116.298 72.0298C116.293 72.2638 116.281 72.3345 116.188 72.6429C116.131 72.8346 116.076 73.0564 116.066 73.1358C116.057 73.2151 116.026 73.3874 115.997 73.5186C115.969 73.6498 115.952 73.7761 115.959 73.7993C115.967 73.8239 115.957 73.8503 115.935 73.8627C115.911 73.8762 115.888 73.9446 115.871 74.0508C115.857 74.1426 115.836 74.2294 115.824 74.2438C115.813 74.2582 115.792 74.3526 115.778 74.4536C115.764 74.5546 115.704 74.7917 115.644 74.9805C115.584 75.1692 115.418 75.7923 115.274 76.3651C115.13 76.938 115.007 77.4147 115.001 77.4244C114.967 77.4792 114.646 78.7332 114.64 78.8339C114.627 79.0423 114.601 79.1889 114.543 79.3748C114.512 79.474 114.47 79.6147 114.45 79.6874C114.429 79.7615 114.393 79.8321 114.367 79.8481C114.331 79.8699 114.321 79.9042 114.321 79.9929C114.321 80.1354 114.19 80.5849 114.004 81.0819C113.767 81.7152 113.726 81.8799 113.799 81.908C113.904 81.9483 113.765 82.2984 113.525 82.5966C113.445 82.6957 113.38 82.7996 113.38 82.8274C113.379 82.8552 113.297 83.058 113.197 83.2782C113.097 83.4983 113.009 83.7223 113.002 83.7759C112.992 83.8505 112.969 83.8882 112.906 83.9363C112.816 84.0054 112.764 84.0955 112.671 84.3435C112.459 84.9088 111.674 85.9846 110.933 86.7249C110.488 87.17 110.345 87.1756 110.238 86.7523C110.13 86.3286 110.108 85.6889 110.188 85.3014C110.246 85.0201 110.25 84.8152 110.199 84.7432C110.166 84.6957 110.168 84.6843 110.22 84.6078C110.263 84.5435 110.28 84.478 110.291 84.3238C110.335 83.7337 110.987 81.9943 111.484 81.142C111.76 80.6672 111.848 80.4751 111.865 80.3038C111.883 80.1364 111.917 80.0718 112.082 79.8954C112.245 79.7197 112.618 79.471 112.717 79.471C112.769 79.471 112.779 79.5284 112.779 79.817C112.779 80.0055 112.789 80.1003 112.812 80.1313C112.85 80.1832 112.899 80.162 112.899 80.0939C112.899 79.9554 113.118 79.6317 113.249 79.577C113.293 79.5584 113.341 79.5209 113.356 79.4937C113.41 79.3922 113.313 79.1595 113.119 78.9271C112.91 78.6768 112.66 78.5811 112.216 78.5819C112.071 78.5822 111.876 78.593 111.783 78.6059C110.915 78.7276 109.972 80.0752 109.168 82.3441C108.882 83.1517 108.694 83.8186 108.616 84.3036C108.594 84.4424 108.572 84.5777 108.567 84.6043C108.561 84.6367 108.493 84.686 108.359 84.7548C108.25 84.8111 108.094 84.9044 108.013 84.9622C107.932 85.0199 107.775 85.1033 107.665 85.1473C107.555 85.1914 107.34 85.2921 107.188 85.371C106.606 85.6737 106.431 85.7471 106.272 85.7545C106.203 85.7577 106.192 85.7499 106.185 85.695C106.177 85.628 106.184 85.6061 106.634 84.0872C107.083 82.5753 107.164 82.2502 107.164 81.9714C107.164 81.7388 107.266 81.269 107.346 81.1338C107.383 81.0704 107.383 81.0608 107.344 80.9838C107.19 80.6798 106.712 80.1926 106.567 80.1921C106.469 80.1918 106.335 80.1327 106.244 80.0496C106.109 79.9261 106.048 79.8961 105.992 79.9261C105.909 79.9704 105.823 80.2427 105.725 80.7693C105.658 81.129 105.641 81.154 105.471 81.154C105.159 81.154 105.102 81.2245 104.429 82.4283C104.151 82.9263 103.987 83.1868 103.266 84.2795C102.275 85.7818 101.501 86.8521 101.405 86.8521C101.363 86.8521 101.36 86.7663 101.397 86.604C101.462 86.3159 101.779 85.4131 102.07 84.6883C102.392 83.8855 102.497 83.6573 102.739 83.2307C102.837 83.0572 102.957 82.83 103.004 82.7258C103.136 82.4385 103.386 81.9919 103.481 81.873C103.528 81.8148 103.624 81.6913 103.694 81.5988C104.011 81.1826 104.313 81.0254 104.777 81.036C105.075 81.0428 105.094 81.0402 105.149 80.9857C105.215 80.9194 105.209 80.8498 105.123 80.677C104.978 80.3874 104.338 79.7972 103.939 79.5858C103.757 79.4897 103.733 79.4831 103.553 79.4831C103.376 79.483 103.348 79.4903 103.187 79.5763C102.976 79.6891 102.67 79.9573 102.573 80.114C102.534 80.1769 102.454 80.291 102.395 80.3676C102.337 80.4442 102.24 80.6011 102.18 80.7162C102.12 80.8314 102.023 81.0013 101.965 81.0939C101.908 81.1864 101.815 81.3412 101.759 81.4378C101.703 81.5344 101.496 81.886 101.299 82.2192C101.102 82.5524 100.848 82.9818 100.736 83.1736C100.624 83.3653 100.513 83.5365 100.489 83.5539C100.465 83.5713 100.451 83.5953 100.458 83.6072C100.465 83.619 100.45 83.6697 100.425 83.7197C100.302 83.9597 99.2874 85.4225 99.1802 85.5141C99.1468 85.5425 99.1045 85.6014 99.086 85.6448C99.0364 85.7617 98.4768 86.6357 98.4516 86.6357C98.4397 86.6357 98.4299 86.6516 98.4299 86.6711C98.4299 86.7147 97.8358 87.333 97.7939 87.333C97.7773 87.333 97.7584 87.3519 97.752 87.375C97.7456 87.3982 97.6229 87.5769 97.4793 87.7722C97.103 88.284 96.8854 88.5955 96.77 88.7875C96.7144 88.8801 96.6403 88.9937 96.6054 89.04C96.5705 89.0863 96.468 89.2323 96.3778 89.3646C95.8288 90.1688 95.3189 90.7602 94.9026 91.0755C94.6539 91.2639 94.0153 91.589 93.8593 91.6066C93.6574 91.6294 93.6054 91.5584 93.4523 91.0513C93.3397 90.6781 93.3001 90.4226 93.2701 89.8747C93.2421 89.362 93.2667 88.6993 93.3427 87.922C93.3685 87.6575 93.4173 87.0949 93.4511 86.6718C93.519 85.822 93.5601 85.5226 93.6179 85.4587C93.6707 85.4002 93.6941 85.3096 93.7631 84.8965C93.8306 84.4921 93.7715 84.594 94.2555 84.0478C94.3946 83.891 94.5915 83.6653 94.6933 83.5462C94.795 83.4272 94.8884 83.319 94.9009 83.3058C94.9134 83.2926 95.031 83.1628 95.1623 83.0173C95.2936 82.8718 95.4361 82.7204 95.4789 82.6807C95.5898 82.5781 95.8897 82.2158 96.0066 82.0433C96.1444 81.84 96.3842 81.4087 96.6286 80.9246C96.7431 80.6978 96.9165 80.401 97.017 80.2599C97.172 80.0421 97.2223 79.9442 97.3621 79.5877C97.4521 79.3582 97.6642 78.8762 97.8335 78.5164C98.0027 78.1567 98.2059 77.7065 98.2849 77.516C98.6277 76.6898 98.94 75.8714 98.9731 75.7123C98.9928 75.6177 99.0739 75.3834 99.1532 75.1915C99.3336 74.7557 99.3971 74.5764 99.4482 74.3583C99.4703 74.2637 99.5421 74.0389 99.6077 73.8588C99.8018 73.3253 99.8297 73.1758 99.8138 72.7511C99.7818 71.8926 99.7234 70.8189 99.7007 70.6732C99.5502 69.7067 99.0931 69.3452 97.902 69.251C97.427 69.2134 97.2398 69.2382 96.863 69.3888C96.6109 69.4896 96.5535 69.5232 96.4382 69.6375C96.1386 69.9349 95.8249 70.4236 95.4247 71.2169C94.6516 72.7492 93.9667 74.499 93.3467 76.5258C92.9871 77.7012 92.93 77.9074 92.7914 78.5333C92.7255 78.8309 92.6282 79.2149 92.5751 79.3869C92.522 79.5588 92.4296 79.9266 92.3698 80.2043C92.3099 80.482 92.2231 80.8553 92.177 81.0338C91.8479 82.3064 91.6602 83.4561 91.496 85.2052C91.4699 85.4829 91.4165 86.0292 91.3774 86.4193C91.2835 87.3554 91.2553 87.8001 91.2553 88.3405C91.2554 88.8219 91.2763 88.9884 91.4 89.4968C91.7012 90.734 92.0834 91.4192 92.7498 91.9168C93.2248 92.2714 93.4715 92.3818 93.7909 92.3823C93.9074 92.3825 94.073 92.3995 94.1587 92.4202C94.349 92.466 94.5457 92.4515 94.8536 92.3689C95.0811 92.3079 95.1563 92.2759 95.2982 92.1793C95.3449 92.1476 95.4289 92.114 95.4848 92.1046C95.6315 92.0802 95.6951 92.0411 95.8715 91.8671C95.9579 91.7817 96.1054 91.667 96.1992 91.6121C96.5181 91.4255 96.7608 91.1549 97.4773 90.1875C97.6317 89.9789 97.7581 89.793 97.7581 89.7742C97.7581 89.7555 97.8117 89.67 97.8772 89.5844C98.0035 89.4192 98.3463 88.9024 98.7247 88.3067C98.8507 88.1083 99.0694 87.7675 99.2107 87.5493C99.3521 87.3312 99.6742 86.8335 99.9266 86.4433L100.386 85.734V86.0827C100.386 86.2745 100.376 86.4455 100.365 86.4628C100.279 86.5959 100.325 87.7562 100.436 88.2466C100.51 88.5768 100.891 89.0108 101.25 89.1756C101.372 89.2317 101.401 89.2356 101.576 89.2201C101.741 89.2055 101.772 89.2088 101.798 89.2435C101.842 89.3047 101.93 89.2717 102.206 89.0892C102.642 88.8013 103.085 88.392 103.085 88.2774C103.085 88.2285 103.282 87.8426 103.495 87.4734C103.737 87.053 104.273 86.0803 104.38 85.8664C104.43 85.7672 104.488 85.6319 104.51 85.5658C104.565 85.3976 104.638 85.2845 104.686 85.2937C104.714 85.2992 104.737 85.3571 104.768 85.4998C104.791 85.6089 104.853 85.7928 104.905 85.9085C104.957 86.0242 105.01 86.1621 105.024 86.215C105.038 86.2679 105.061 86.3552 105.075 86.409C105.089 86.4628 105.154 86.5744 105.22 86.6571C105.287 86.7398 105.37 86.8689 105.405 86.944C105.486 87.1148 105.894 87.5293 106.082 87.6307C106.199 87.6935 106.226 87.6987 106.37 87.6858C106.457 87.678 106.615 87.6443 106.72 87.6111C106.826 87.5779 106.958 87.5438 107.014 87.5354C107.133 87.5173 107.185 87.479 107.572 87.1231C107.764 86.9467 107.912 86.8312 108.001 86.7898C108.194 86.6996 108.235 86.6526 108.305 86.4414C108.353 86.297 108.388 86.2347 108.459 86.1703C108.637 86.0098 108.639 86.0103 108.701 86.2338C108.925 87.0366 109.252 87.5335 109.696 87.7451C109.775 87.7829 109.853 87.8138 109.869 87.8138C109.886 87.8138 110.031 87.8667 110.193 87.9313C110.917 88.2201 111.196 88.2385 111.713 88.0312C112.262 87.8108 113.178 87.1615 113.379 86.8496C113.429 86.7727 113.476 86.7166 113.484 86.7249C113.492 86.7331 113.499 86.8662 113.499 87.0206C113.499 87.5245 113.594 88.3337 113.728 88.9679C113.911 89.8367 114.355 90.7632 114.902 91.4158C115.082 91.6313 115.355 91.8751 115.455 91.9106C115.481 91.92 115.577 91.9721 115.667 92.0266C115.8 92.1071 115.835 92.1192 115.852 92.0914C115.906 92.0062 115.849 91.8512 115.755 91.829C115.694 91.8146 115.661 91.7471 115.619 91.5527C115.605 91.4841 115.581 91.4482 115.536 91.4266C115.423 91.3727 115.321 91.0582 115.241 90.518C115.219 90.3723 115.175 90.1342 115.141 89.9891C115.024 89.4752 115.007 89.2724 115.024 88.6433C115.035 88.2818 115.029 87.7879 115.009 87.3209C114.96 86.1552 114.966 85.8932 115.056 85.3014C115.156 84.6497 115.242 84.2115 115.278 84.1674C115.296 84.1461 115.309 84.0409 115.311 83.8994C115.314 83.723 115.326 83.646 115.36 83.5823C115.394 83.5192 115.405 83.444 115.407 83.2818C115.409 83.126 115.431 82.9811 115.484 82.7649C115.526 82.5996 115.588 82.3237 115.623 82.1518C115.658 81.9799 115.707 81.7527 115.732 81.6469C115.776 81.4612 115.774 81.3679 115.724 81.3038C115.707 81.2819 115.724 81.2505 115.784 81.1915C115.865 81.1132 115.869 81.1009 115.879 80.9091C115.886 80.7841 115.905 80.677 115.932 80.6248C115.955 80.5786 115.99 80.4327 116.01 80.3005C116.047 80.0494 116.068 79.9589 116.172 79.6066C116.211 79.4743 116.235 79.3352 116.235 79.2398C116.235 79.1069 116.243 79.0791 116.293 79.0353C116.371 78.9672 116.387 78.9206 116.487 78.4732C116.586 78.0285 116.762 77.3602 116.835 77.1509C116.863 77.0715 116.944 76.7794 117.015 76.5017C117.086 76.224 117.227 75.6993 117.327 75.3357C117.591 74.3836 117.628 74.2354 117.64 74.065C117.647 73.981 117.668 73.8729 117.689 73.8246C117.709 73.7763 117.783 73.4609 117.854 73.1237C118.013 72.3648 118.129 71.8267 118.145 71.7713C118.152 71.7482 118.172 71.7293 118.189 71.7293C118.212 71.7293 118.229 71.6565 118.249 71.4828C118.265 71.3473 118.295 71.1174 118.317 70.9719C118.366 70.642 118.371 69.818 118.325 69.5911C118.238 69.1539 117.919 68.8534 117.014 68.3567C116.721 68.1957 116.69 68.1857 116.627 68.2304ZM97.9916 70.0312C97.9115 70.1056 97.844 70.2423 97.8062 70.4069C97.7895 70.4796 97.7198 70.7339 97.6513 70.9719C97.5829 71.2099 97.5141 71.4562 97.4985 71.5191C97.483 71.582 97.4067 71.7659 97.3291 71.9278C97.2515 72.0897 97.1634 72.2979 97.1332 72.3904C97.1031 72.483 97.047 72.6345 97.0086 72.727C96.8676 73.0669 96.6834 73.5753 96.6576 73.6958C96.643 73.7639 96.5509 74.0066 96.4529 74.235C96.2629 74.678 96.1612 74.9635 95.7266 76.2733C95.1638 77.9698 94.7745 79.3856 94.7417 79.8557C94.7306 80.0142 94.7155 80.0762 94.674 80.1322C94.5831 80.255 94.5651 80.307 94.5416 80.5143C94.5281 80.6335 94.4949 80.7675 94.4598 80.8443C94.4198 80.9319 94.3893 81.0668 94.3655 81.2622C94.3196 81.6382 94.2935 82.2547 94.3249 82.2233C94.3618 82.1862 94.8546 81.3166 95.1938 80.6899C95.629 79.8859 96.011 79.1141 96.1898 78.6776C96.2738 78.4726 96.3951 78.2184 96.4593 78.1126C96.6649 77.7741 96.7383 77.5982 97.1473 76.4638C97.2352 76.2202 97.4129 75.772 97.5423 75.4679C97.6716 75.1638 97.7851 74.877 97.7945 74.8308C97.8301 74.6546 97.974 74.1772 98.1169 73.7609C98.3253 73.1541 98.3516 73.0174 98.3971 72.3063C98.4641 71.2597 98.4514 70.9533 98.3182 70.4069C98.2281 70.0372 98.1991 69.9741 98.1189 69.9741C98.0827 69.9741 98.0254 69.9998 97.9916 70.0312ZM74.2894 72.3082C74.274 72.3371 74.2675 72.6295 74.2717 73.1054C74.2781 73.8181 74.2757 73.868 74.2244 74.0694C74.1431 74.389 73.8136 75.432 73.7635 75.528L73.7197 75.6121L73.3632 75.6279C73.0863 75.6402 72.9209 75.6627 72.6227 75.7286C72.1793 75.8267 71.936 75.8566 71.3172 75.889C71.0718 75.9019 70.7145 75.9335 70.5231 75.9593C70.3318 75.985 69.9268 76.0396 69.6233 76.0806C69.3198 76.1216 68.5963 76.2368 68.0156 76.3366C67.2955 76.4604 66.8797 76.5207 66.7078 76.5264C66.4235 76.5359 66.1022 76.5938 65.628 76.721C65.1301 76.8546 64.9446 76.8942 64.6322 76.9338C64.1004 77.001 63.4205 77.2255 63.1633 77.4188C63.0566 77.4989 63.0124 77.6602 63.0131 77.9667C63.0137 78.2487 63.0436 78.3344 63.2205 78.5599C63.3794 78.7627 63.5326 78.8697 63.6952 78.8919C63.7851 78.9041 63.8394 78.9259 63.8692 78.9619C63.9348 79.0411 64.211 79.0711 64.7042 79.0527C65.2459 79.0325 65.5331 78.9879 65.88 78.8703C66.0384 78.8166 66.3083 78.7338 66.4799 78.6863C66.6515 78.6388 66.8134 78.5807 66.8398 78.557C66.922 78.4835 69.3499 78.0206 70.8711 77.7884C71.135 77.7481 71.7474 77.6491 72.232 77.5684C73.0676 77.4293 73.2346 77.4144 73.2346 77.4792C73.2346 77.494 73.1914 77.5531 73.1387 77.6105C73.0351 77.7231 73.0312 77.7361 73.0652 77.8552C73.0931 77.9525 73.0528 78.101 72.9622 78.2345C72.9273 78.286 72.8987 78.3569 72.8987 78.392C72.8987 78.4271 72.8547 78.5788 72.8009 78.729C72.7471 78.8793 72.6789 79.0892 72.6494 79.1956C72.62 79.302 72.5629 79.4372 72.5226 79.4961C72.3784 79.7071 72.3392 79.8094 72.3347 79.9879C72.3314 80.1175 72.3107 80.2061 72.2448 80.3726C72.1977 80.4916 72.1289 80.6918 72.092 80.8174C72.055 80.943 71.9988 81.0861 71.967 81.1354C71.9268 81.1978 71.9126 81.2477 71.9203 81.2999C71.9292 81.361 71.9208 81.3797 71.8751 81.4005C71.8244 81.4237 71.8189 81.4418 71.8189 81.5849C71.8189 81.6954 71.7905 81.8466 71.7257 82.0817C71.6744 82.2675 71.5762 82.6731 71.5074 82.9829C71.4385 83.2928 71.3346 83.6869 71.2763 83.8588C71.0622 84.4905 70.9635 84.92 70.8462 85.7291C70.7998 86.0492 70.7344 86.4564 70.7009 86.634C70.6097 87.1181 70.4345 88.3588 70.4054 88.7274C70.3913 88.906 70.3686 89.221 70.3549 89.4276C70.3412 89.6341 70.3146 89.8841 70.2957 89.9831C70.2768 90.0821 70.2442 90.3567 70.2233 90.5933C70.1217 91.7423 70.055 92.2357 69.9654 92.5021C69.9196 92.6386 69.9128 92.7114 69.9121 93.075C69.9113 93.4409 69.9162 93.4952 69.9523 93.5217C70.0024 93.5586 70.0432 93.6606 70.0432 93.7492C70.0432 93.8184 70.1485 94.0037 70.2224 94.0646C70.3025 94.1306 70.381 94.2826 70.4064 94.4207C70.4352 94.5774 70.4607 94.6179 70.5303 94.6179C70.559 94.6179 70.6354 94.6763 70.7133 94.7577C70.8738 94.9254 70.9876 94.9665 71.291 94.9665C71.5277 94.9665 71.6135 94.9475 71.6423 94.8886C71.6536 94.8653 71.6629 94.6127 71.6629 94.3272C71.6629 93.9235 71.6702 93.7992 71.6958 93.7683C71.7148 93.7452 71.7232 93.7009 71.7158 93.6623C71.7088 93.6259 71.7315 93.4663 71.7663 93.3076C71.8286 93.0241 71.8297 93.0025 71.832 92.0694C71.835 90.8762 71.8961 90.2885 72.0481 89.9918C72.0963 89.8976 72.1055 89.8531 72.0935 89.7728C72.0819 89.6951 72.0905 89.6481 72.131 89.5687C72.1834 89.4656 72.1835 89.4651 72.1398 89.2948C72.0671 89.0112 72.0974 88.58 72.1876 88.6147C72.2131 88.6245 72.2232 88.5543 72.2363 88.2745C72.2514 87.953 72.2581 87.9144 72.3124 87.8358C72.4131 87.6899 72.4258 87.6096 72.4307 87.0925C72.4343 86.7041 72.4436 86.5767 72.4746 86.4915C72.4963 86.432 72.5142 86.3612 72.5144 86.3342C72.515 86.2492 72.6343 85.862 72.7177 85.674C72.7833 85.5264 72.8029 85.4414 72.8263 85.2052C72.8419 85.0465 72.8754 84.8548 72.9007 84.7792C72.926 84.7036 72.9467 84.6179 72.9467 84.5887C72.9467 84.5596 72.9622 84.5186 72.9811 84.4977C73.0429 84.4293 73.1646 83.9447 73.1797 83.7073C73.1922 83.5094 73.2016 83.4738 73.2617 83.3981C73.3638 83.2693 73.601 82.4822 73.5907 82.3061C73.5855 82.2178 73.7041 81.8993 73.7421 81.8993C73.7534 81.8993 73.7625 81.8827 73.7625 81.8623C73.7625 81.8128 74.1175 80.9834 74.1583 80.9376C74.1768 80.9169 74.1851 80.8738 74.1778 80.8363C74.1657 80.7739 74.4075 80.0282 74.7569 79.0503C74.8278 78.8519 74.8969 78.6572 74.9105 78.6175C74.9241 78.5778 74.9992 78.3668 75.0773 78.1487C75.1555 77.9305 75.2496 77.66 75.2863 77.5476C75.3231 77.4352 75.3624 77.3183 75.3738 77.2878C75.414 77.1798 75.8396 77.0256 76.414 76.911C77.0452 76.7851 77.3924 76.7483 78.0937 76.7329C78.7448 76.7186 78.7684 76.7164 78.8565 76.6615C78.9374 76.6111 78.9554 76.6082 79.0203 76.6351C79.1211 76.6769 79.7652 76.6547 81.1172 76.5627C82.5059 76.4682 83.0248 76.4166 83.0248 76.3729C83.0248 76.3644 83.2921 76.3546 83.6187 76.3511C83.9454 76.3475 84.5527 76.3345 84.9684 76.3221C86.2368 76.2842 87.0656 76.3355 87.461 76.4763C87.5935 76.5235 87.6553 76.5235 87.7226 76.4763C87.7937 76.4265 87.7927 76.307 87.7194 76.0912C87.603 75.7484 87.5313 75.6407 87.1498 75.236C87.0038 75.0812 86.8545 74.9077 86.818 74.8505C86.7513 74.746 86.5237 74.5182 86.486 74.5182C86.448 74.5182 86.4082 74.5759 86.4082 74.6309V74.686L86.2759 74.621C86.1549 74.5615 86.137 74.5587 86.0659 74.5881C86.0232 74.6058 85.9275 74.6373 85.8533 74.6581C85.7215 74.695 85.7133 74.6944 85.5053 74.6307C85.2048 74.5385 85.0316 74.5084 84.8245 74.5121C84.056 74.5258 83.5893 74.5485 83.0218 74.5999C82.6605 74.6326 82.176 74.6658 81.945 74.6737C81.3548 74.694 81.2999 74.7025 81.2223 74.7858C81.1868 74.8239 81.1432 74.85 81.1254 74.8439C81.1077 74.8378 80.928 74.8211 80.7262 74.8068L80.3592 74.7808L79.927 74.9411C79.4503 75.1181 79.4202 75.1213 79.0775 75.0318C78.869 74.9773 78.4059 74.9967 78.2257 75.0674C78.1531 75.0959 78.0483 75.1193 77.9927 75.1193C77.9372 75.1193 77.8102 75.1314 77.7106 75.1463C77.5643 75.1681 77.4529 75.1655 77.1316 75.1329C76.9128 75.1106 76.7084 75.0828 76.6773 75.0709C76.6384 75.0561 76.5991 75.0603 76.551 75.0843C76.5126 75.1035 76.4337 75.1257 76.3756 75.1336C76.2897 75.1453 76.2578 75.1383 76.2041 75.0958C76.1214 75.0304 76.1204 74.9748 76.1968 74.6826C76.28 74.3642 76.3134 74.0949 76.3013 73.8385C76.2886 73.57 76.219 73.4129 76.0074 73.1753C75.7265 72.86 75.5448 72.739 75.3517 72.739C75.2502 72.739 75.2285 72.7298 75.1821 72.6669C75.1192 72.5818 74.664 72.3516 74.4521 72.2977C74.3212 72.2645 74.3125 72.265 74.2894 72.3082ZM56.455 72.5489C56.4051 72.5607 56.3322 72.5869 56.293 72.6072L56.2218 72.6441V72.9747C56.2218 73.3872 56.1945 73.6129 56.0875 74.0854C56.0094 74.4299 55.9689 74.6328 55.9097 74.975C55.882 75.1348 55.7521 75.4003 55.6214 75.5641C55.446 75.7838 55.286 76.2053 55.286 76.4473C55.286 76.5196 55.2714 76.5535 55.2229 76.5937C55.0938 76.7008 55.045 76.7641 55.0176 76.86C54.9646 77.0455 54.595 77.9921 54.4582 78.2929C54.2784 78.6883 54.2338 78.802 54.1829 78.9948C54.1595 79.0832 54.1228 79.1733 54.1013 79.1948C54.0798 79.2164 54.0622 79.2645 54.0622 79.3019C54.0622 79.4517 53.8929 79.8968 53.7511 80.1195C53.713 80.1793 53.6498 80.3095 53.6107 80.4087C53.4708 80.7633 53.3194 81.0786 53.2608 81.1373C53.2076 81.1907 53.2027 81.2108 53.2149 81.3289C53.2225 81.4023 53.2153 81.5159 53.1989 81.5846C53.1541 81.7716 53.0197 82.0996 52.94 82.2163C52.8401 82.3627 52.7993 82.4506 52.7834 82.5544C52.7757 82.6039 52.7314 82.7067 52.6848 82.7828C52.6383 82.8589 52.5612 83.0347 52.5135 83.1736C52.4163 83.4569 52.2784 83.7296 52.1569 83.879C52.1122 83.934 52.0372 84.0432 51.9902 84.1216C51.8906 84.2881 51.8084 84.3489 51.4152 84.5472C51.1974 84.657 51.1029 84.6918 51.0073 84.6971C50.9277 84.7016 50.8006 84.7393 50.6548 84.8016C50.3987 84.9112 50.0713 85.0098 49.8406 85.0469C49.7164 85.0668 49.6697 85.0876 49.6007 85.1536C49.4911 85.2584 49.4727 85.2673 49.1167 85.388C48.7502 85.5122 48.4082 85.6706 48.0696 85.8731C47.9276 85.958 47.7082 86.0839 47.5821 86.1529C47.3155 86.2987 47.0941 86.459 47.0096 86.5672C46.9299 86.6692 46.9142 86.8709 46.9722 87.0481C47.1771 87.6743 47.5492 87.9894 48.1473 88.0431C48.5297 88.0775 49.3232 87.8014 49.671 87.513C49.7436 87.4528 49.9272 87.3436 50.0789 87.2705C50.2307 87.1973 50.4368 87.0894 50.537 87.0308C50.7128 86.9279 50.7988 86.9002 50.7988 86.9464C50.7988 86.9585 50.7623 87.0965 50.7177 87.2529C50.673 87.4093 50.6012 87.6672 50.5581 87.8258C50.515 87.9845 50.4388 88.2009 50.3887 88.3067C50.2833 88.5295 50.1666 88.9507 50.1845 89.0438C50.1921 89.083 50.1851 89.1123 50.1666 89.1194C50.15 89.1258 50.1236 89.1944 50.108 89.2718C50.0923 89.3493 50.0693 89.4623 50.0567 89.5229C50.0441 89.5836 50.001 89.6863 49.9608 89.7513C49.8659 89.9048 49.7625 90.3353 49.5882 91.3019C49.5325 91.6108 49.5452 92.0882 49.6358 93.0912C49.7289 94.1214 49.8103 94.5744 49.9829 95.0226C50.073 95.2566 50.1078 95.3051 50.2094 95.3387C50.2794 95.3619 50.3059 95.3586 50.3883 95.3165C50.4415 95.2893 50.5077 95.2671 50.5355 95.2671C50.6235 95.2671 50.6763 95.2213 50.7375 95.0921C50.7702 95.023 50.8208 94.9518 50.85 94.9337C50.9193 94.8907 51.0584 94.8939 51.1707 94.9409C51.3006 94.9953 51.3457 94.9879 51.3966 94.904C51.4811 94.7649 51.4999 94.4912 51.4971 93.4493C51.4944 92.4864 51.4956 92.4593 51.5437 92.3982C51.5819 92.3494 51.6012 92.2638 51.6297 92.016C51.6689 91.6748 51.6804 91.6341 52.1538 90.158C52.2955 89.7161 52.445 89.3072 52.5619 89.0416C52.6633 88.8111 52.8324 88.4077 52.9377 88.1452C53.0429 87.8828 53.1989 87.5102 53.2844 87.3173C53.3747 87.1134 53.434 86.9487 53.4262 86.9238C53.4106 86.8745 53.5783 86.4165 53.6771 86.239C53.7138 86.1729 53.757 86.0649 53.7729 85.9989C53.8193 85.8066 53.8912 85.6621 53.9612 85.6207C53.997 85.5996 54.0949 85.5644 54.1789 85.5426C54.3915 85.4874 54.8173 85.333 54.9677 85.2565C55.1585 85.1596 56.538 84.7604 56.6823 84.7604C56.732 84.7604 56.7326 84.7658 56.7167 85.091C56.7078 85.2728 56.6904 85.573 56.6781 85.7582C56.6657 85.9433 56.6484 86.4302 56.6397 86.8401C56.6269 87.4364 56.6317 87.6768 56.6633 88.0422C56.7597 89.1536 56.9403 90.3425 57.0587 90.6433C57.0851 90.7105 57.1229 90.8506 57.1426 90.9546C57.1936 91.2236 57.4014 91.9007 57.5585 92.3097C58.0056 93.4741 58.4614 94.1702 59.0231 94.5466C59.3134 94.7411 59.3482 94.7043 59.1148 94.4495C58.9748 94.2967 58.9123 94.1981 58.9387 94.1717C58.9441 94.1663 59.018 94.2211 59.1028 94.2934C59.1878 94.3657 59.2635 94.4251 59.2712 94.4252C59.2789 94.4254 59.2971 94.3866 59.3117 94.3389C59.3451 94.23 59.3083 93.8651 59.2465 93.6923C59.0884 93.2501 59.0327 93.0678 58.8742 92.4741C58.7765 92.1082 58.6803 91.7773 58.6604 91.7387C58.5776 91.5783 58.5054 90.953 58.4154 89.617C58.3485 88.625 58.3244 87.1747 58.3667 86.6945C58.3839 86.5005 58.3801 86.4089 58.3475 86.2317C58.3051 86 58.3082 85.9024 58.3716 85.4937C58.3901 85.3747 58.4052 85.1978 58.4053 85.1007C58.4054 84.9562 58.4152 84.9103 58.4594 84.8482C58.5036 84.7861 58.5149 84.7334 58.5218 84.556C58.5305 84.3309 58.5493 84.2795 58.6231 84.2795C58.6472 84.2795 58.6958 84.2415 58.7312 84.1951C58.8103 84.0912 58.8735 84.0735 59.0259 84.1127C59.1423 84.1426 59.1455 84.1419 59.2361 84.067C59.3212 83.9968 59.3417 83.991 59.5065 83.991C59.6564 83.991 59.7025 83.9808 59.795 83.9268C60.0108 83.8008 60.1612 83.6745 60.1967 83.5892C60.2401 83.4851 60.2644 83.2941 60.2443 83.2141C60.2287 83.1518 60.129 83.1014 60.0215 83.1014C59.9569 83.1014 59.9488 83.0728 60.0011 83.0293C60.0209 83.0129 60.0371 82.9814 60.0371 82.9593C60.0371 82.9131 59.8537 82.752 59.7609 82.7167C59.7263 82.7035 59.5527 82.6927 59.3751 82.6927H59.0521L59.025 82.6266C59.0101 82.5902 58.993 82.4569 58.987 82.3303C58.9784 82.1503 58.9869 82.0561 59.0259 81.8976C59.0533 81.7861 59.0868 81.5814 59.1004 81.4425C59.1139 81.3037 59.1538 81.0517 59.189 80.8826C59.2526 80.5779 59.2528 80.573 59.2169 80.3143C59.1911 80.1288 59.1868 80.0126 59.202 79.9125C59.2138 79.8349 59.2267 79.6038 59.2307 79.3989C59.2365 79.1038 59.2507 78.9712 59.2991 78.7617C59.3558 78.516 59.3995 78.1267 59.3918 77.9341C59.39 77.8888 59.41 77.7319 59.4362 77.5855C59.518 77.1286 59.5885 76.1914 59.6299 75.013C59.6733 73.774 59.6274 73.5525 59.2534 73.1948C58.9045 72.8612 58.5753 72.6847 58.1294 72.5921C57.8476 72.5337 57.7531 72.5353 57.6306 72.6006C57.5415 72.6481 57.494 72.6544 57.2276 72.6547C56.9371 72.6549 56.922 72.6524 56.8304 72.5888C56.7291 72.5185 56.629 72.5079 56.455 72.5489ZM57.8937 76.397C57.8746 76.4414 57.7982 76.6165 57.7238 76.7861C57.5506 77.1811 57.1346 78.2078 57.1045 78.3144C57.0919 78.3592 56.9171 78.7229 56.7161 79.1226C56.5152 79.5222 56.2935 79.994 56.2234 80.171C56.0513 80.6058 55.9064 80.8825 55.7681 81.0409C55.5939 81.2404 55.545 81.317 55.5607 81.3664C55.5804 81.4288 55.4705 81.7942 55.3424 82.0917C55.2826 82.2305 55.1655 82.5064 55.0822 82.7047C54.9988 82.9031 54.865 83.2107 54.7847 83.3883C54.7045 83.5659 54.6437 83.7162 54.6497 83.7222C54.6557 83.7282 54.8148 83.6675 55.0033 83.5874C55.1918 83.5072 55.3892 83.4287 55.4419 83.4128C55.4947 83.3969 55.5565 83.3676 55.5793 83.3477C55.6084 83.3223 55.648 83.3159 55.7124 83.3262C55.7863 83.338 55.9194 83.3038 56.4004 83.1495C56.7283 83.0443 57.0024 82.9524 57.0095 82.9453C57.0165 82.9383 57.0361 82.7514 57.053 82.5301C57.0699 82.3088 57.0946 82.0682 57.1078 81.9955C57.121 81.9228 57.1391 81.7929 57.148 81.707C57.1569 81.621 57.1836 81.5006 57.2074 81.4394C57.2639 81.2938 57.3589 80.8394 57.4456 80.3005C57.6061 79.3013 57.9727 76.3607 57.9407 76.3287C57.9339 76.3218 57.9127 76.3525 57.8937 76.397ZM122.905 77.6204C122.78 77.6447 122.369 77.7347 121.992 77.8203C121.615 77.906 121.253 77.9836 121.188 77.9929C121.042 78.0135 120.263 78.1716 120.242 78.1848C120.233 78.1901 120.054 78.2123 119.844 78.2341C119.386 78.2817 119.159 78.3363 119.016 78.4329C118.958 78.4726 118.87 78.5125 118.821 78.5217C118.648 78.5542 118.526 78.7451 118.543 78.9557C118.557 79.1154 118.637 79.2267 118.795 79.3055C118.904 79.3595 118.934 79.3627 119.33 79.3614C119.64 79.3604 119.793 79.3493 119.913 79.3193C120.152 79.2599 120.238 79.2646 120.266 79.3388C120.278 79.3718 120.305 79.3989 120.324 79.3989C120.365 79.3989 120.444 79.6312 120.481 79.8634C120.539 80.2173 120.489 80.9546 120.383 81.3103C120.236 81.808 119.835 82.6803 119.625 82.9598C119.552 83.0566 119.486 83.1537 119.477 83.1757C119.462 83.2165 118.593 84.2256 118.399 84.4278C118.329 84.5009 118.283 84.5326 118.265 84.5188C118.12 84.4041 118.058 84.3374 118.003 84.2357C117.947 84.1328 117.943 84.1144 117.976 84.1019C118.007 84.0899 118.012 84.0541 118.005 83.9009C118 83.7984 117.981 83.6645 117.963 83.6034C117.93 83.4938 117.932 83.4876 118.052 83.1586C118.15 82.8937 118.177 82.7853 118.187 82.6326C118.195 82.5052 118.216 82.4055 118.249 82.3372C118.3 82.2352 118.317 82.157 118.37 81.7992C118.43 81.3892 118.527 81.1835 118.808 80.8719C118.87 80.8026 118.926 80.7215 118.932 80.6915C118.938 80.6616 118.949 80.4738 118.956 80.2741L118.968 79.9112L118.873 79.7486C118.821 79.6591 118.778 79.573 118.778 79.5573C118.778 79.5128 118.726 79.471 118.67 79.471C118.642 79.471 118.587 79.4376 118.549 79.3967C118.407 79.2474 118.234 79.2116 118.104 79.3046C117.88 79.4641 117.207 80.7572 117.024 81.3771C116.996 81.4726 116.943 81.621 116.906 81.707C116.87 81.7929 116.763 82.085 116.669 82.3561C116.539 82.7304 116.498 82.8808 116.498 82.9812C116.497 83.054 116.482 83.2271 116.463 83.3659C116.425 83.6438 116.42 83.9143 116.449 84.0992C116.544 84.6893 116.564 84.7628 116.697 84.9887C116.87 85.2828 117.393 85.7616 117.687 85.8943C117.788 85.9395 117.848 85.9479 118.07 85.9473C118.215 85.947 118.383 85.9335 118.442 85.9174C118.891 85.7953 119.457 85.4689 119.683 85.2014C119.733 85.1417 119.818 85.0479 119.871 84.9928C120.103 84.7546 120.573 84.1801 120.727 83.9453C120.95 83.608 121.193 83.1008 121.346 82.6567C121.415 82.4583 121.491 82.26 121.517 82.2159C121.542 82.1718 121.573 82.0636 121.585 81.9755C121.598 81.8873 121.631 81.7394 121.658 81.6469C121.686 81.5543 121.718 81.4409 121.73 81.3949C121.769 81.2427 121.783 80.7149 121.757 80.3441L121.732 79.979L121.573 79.6802C121.485 79.5158 121.344 79.2889 121.26 79.1759C121.175 79.0629 121.106 78.959 121.106 78.945C121.106 78.9092 121.187 78.8699 121.262 78.8699C121.347 78.8699 121.407 78.8352 121.559 78.6963C121.733 78.5382 121.924 78.411 122.114 78.328C122.199 78.2903 122.328 78.2211 122.399 78.174C122.656 78.0043 122.802 77.9234 123.055 77.8097C123.31 77.6957 123.431 77.6249 123.433 77.5897C123.434 77.5577 123.14 77.5749 122.905 77.6204ZM75.3911 81.9173C75.3768 81.9537 75.3564 82.1295 75.3457 82.308C75.3152 82.8171 75.1816 83.3916 74.8062 84.6282C74.4638 85.7559 74.2645 86.5404 74.1923 87.0445C74.1648 87.2362 74.121 87.4526 74.0949 87.5253C74.057 87.6308 74.0446 87.7453 74.0335 88.0917C74.0105 88.8095 74.0614 89.0314 74.3917 89.6531C74.6257 90.0937 74.7192 90.2179 74.817 90.2184C74.8976 90.2189 74.9303 90.2418 74.9591 90.3178C74.9872 90.392 75.1242 90.4638 75.3454 90.5204C75.5975 90.5849 76.0168 90.5596 76.3008 90.4627C76.5347 90.383 76.8494 90.2227 76.9116 90.1517C76.9318 90.1287 76.9557 90.0855 76.9647 90.0558C76.9738 90.0261 76.9961 90.0017 77.0144 90.0017C77.1035 90.0017 77.203 89.9134 77.487 89.5825C77.9221 89.0753 78.2082 88.6859 78.7476 87.8666C79.006 87.4739 79.2657 87.0894 79.3246 87.0122C79.4304 86.8735 79.4323 86.8723 79.478 86.9181C79.5083 86.9485 79.5574 87.1003 79.6207 87.3591C79.7233 87.7788 79.8161 88.0075 80.0289 88.3647C80.2293 88.7009 80.3842 88.8977 80.4799 88.9377C80.5269 88.9573 80.6624 89.0518 80.7812 89.1478C81.161 89.4546 81.2693 89.5064 81.737 89.6046C81.9366 89.6465 82.0689 89.6628 82.1195 89.6517C82.2329 89.6269 82.6573 89.4116 82.7845 89.3144C82.8449 89.2683 82.9251 89.1918 82.9628 89.1445C83.0005 89.0972 83.0784 89.0376 83.136 89.012C83.2297 88.9705 83.2408 88.9571 83.2408 88.8848C83.2408 88.8226 83.2774 88.7547 83.3992 88.5914C83.5773 88.3524 83.6352 88.2464 83.7825 87.8894C83.839 87.7525 83.9075 87.6248 83.9348 87.6057C84.0098 87.553 84.0336 87.4936 84.1184 87.147C84.174 86.92 84.2317 86.757 84.3186 86.5816C84.5004 86.2148 84.5324 85.9797 84.4194 85.8399L84.3758 85.786L83.9753 86.1967C83.755 86.4225 83.5131 86.6539 83.4378 86.7107C83.3624 86.7676 83.1961 86.9164 83.0681 87.0414C82.812 87.2916 82.6611 87.4046 82.275 87.6353C81.7734 87.935 81.2292 88.1856 81.0017 88.2216C80.8879 88.2396 80.8754 88.2364 80.8125 88.1735C80.7755 88.1364 80.7452 88.0825 80.7452 88.0538C80.7452 88.0105 80.7062 87.7932 80.6103 87.3027C80.6032 87.2662 80.5807 87.2197 80.5605 87.1994C80.528 87.1668 80.5269 87.1148 80.5516 86.7608C80.5902 86.2048 80.6183 85.9254 80.6875 85.4095C80.7433 84.9929 80.7585 84.9313 80.9282 84.4358C81.1385 83.8215 81.1659 83.7574 81.2275 83.7378C81.2675 83.7251 81.2713 83.7075 81.2581 83.5949C81.2448 83.4814 81.2514 83.4518 81.3152 83.3381C81.395 83.1961 81.4534 83.0336 81.4323 83.0124C81.4247 83.0049 81.3925 83.0159 81.3606 83.0368C81.2953 83.0797 81.2731 83.0689 81.2731 82.9937C81.2731 82.9273 81.1793 82.8395 80.9905 82.7294C80.9077 82.6811 80.7889 82.5918 80.7266 82.531C80.6642 82.4702 80.5593 82.3958 80.4933 82.3656C80.3572 82.3035 80.0969 82.2525 79.9752 82.2642L79.8934 82.272L79.8923 82.4322C79.8912 82.5788 79.8784 82.6183 79.7422 82.897C79.5232 83.3447 79.2334 83.7802 79.1333 83.8121C79.0961 83.8239 79.0888 83.8407 79.1006 83.8878C79.1199 83.9646 78.9816 84.204 78.7583 84.4806C78.509 84.7893 78.0412 85.4254 77.893 85.6571C77.7205 85.9268 77.4495 86.3144 77.3747 86.3986C77.3354 86.4429 77.3013 86.4596 77.2683 86.451C77.2046 86.4343 77.1245 86.5228 76.8777 86.8829C76.4298 87.5363 75.5731 88.4819 75.4977 88.4063C75.4723 88.3809 75.8603 86.9758 76.0166 86.5275C76.0673 86.3821 76.1808 86.0034 76.2689 85.686C76.3569 85.3687 76.4621 84.9954 76.5026 84.8566C76.6603 84.3151 76.6748 84.1447 76.5866 83.8657C76.5328 83.6954 76.5246 83.4861 76.5717 83.4861C76.583 83.4861 76.6038 83.4646 76.6179 83.4383C76.6369 83.4026 76.6318 83.34 76.5977 83.1919C76.5726 83.0826 76.5386 82.9283 76.5223 82.849C76.4943 82.7126 76.4807 82.6929 76.2734 82.4875C75.8684 82.0864 75.5658 81.8512 75.4546 81.8512C75.4339 81.8512 75.4054 81.881 75.3911 81.9173ZM124.912 81.9635C124.904 81.9883 124.908 82.0446 124.92 82.0886C124.956 82.2151 124.919 82.4658 124.594 84.3036C124.495 84.8656 124.382 85.466 124.344 85.638C124.206 86.2622 124.165 86.6436 124.225 86.7556C124.238 86.7801 124.287 86.8128 124.334 86.8283C124.43 86.8601 124.505 86.8269 124.573 86.7231C124.618 86.6551 124.79 86.5589 124.969 86.5025C125.064 86.4726 125.19 86.46 125.417 86.4581C125.732 86.4554 125.734 86.4551 125.807 86.3854C125.847 86.3469 125.896 86.2653 125.916 86.204C125.965 86.0587 126.017 85.9866 126.073 85.9866C126.115 85.9866 126.118 85.973 126.105 85.8332C126.087 85.6421 126.162 85.3654 126.25 85.2959C126.294 85.2611 126.339 85.1427 126.452 84.7594C126.617 84.2037 126.668 83.9599 126.689 83.6299C126.707 83.3364 126.666 83.1857 126.512 82.9806C126.31 82.7114 125.737 82.2786 125.275 82.0461C125.028 81.9223 124.932 81.9003 124.912 81.9635Z" fill="#EC1B30"/>
</g>
<defs>
<clipPath id="clip0_316_8947">
<rect width="83.2" height="32" fill="white" transform="translate(46.9 64)"/>
</clipPath>
</defs>
</svg>
